<?xml version="1.0" standalone="no"?>
<!DOCTYPE svg PUBLIC "-//W3C//DTD SVG 20010904//EN"
 "http://www.w3.org/TR/2001/REC-SVG-20010904/DTD/svg10.dtd">
<svg version="1.0" xmlns="http://www.w3.org/2000/svg"
 width="300.000000pt" height="216.000000pt" viewBox="0 0 300.000000 216.000000"
 preserveAspectRatio="xMidYMid meet">
<metadata>
Created by potrace 1.10, written by Peter Selinger 2001-2011
</metadata>
<g transform="translate(0.000000,216.000000) scale(0.100000,-0.100000)"
fill="#000000" stroke="none">
<path d="M842 1814 c-273 -60 -498 -278 -568 -548 -50 -191 -13 -417 94 -586
78 -122 228 -248 357 -298 129 -50 169 -53 656 -50 444 4 455 4 524 27 39 13
86 31 105 41 26 13 134 30 395 60 198 24 361 44 363 45 2 2 -72 95 -164 208
l-168 205 -1 153 c-1 131 -5 164 -24 224 -82 249 -255 422 -506 506 -69 23
-77 23 -535 25 -369 2 -478 0 -528 -12z m993 -59 c228 -47 429 -228 508 -454
27 -76 31 -100 31 -201 1 -63 -2 -131 -6 -150 -8 -34 -4 -40 98 -165 58 -72
126 -154 150 -183 25 -28 42 -52 38 -52 -3 0 -144 -16 -313 -35 -277 -32 -312
-38 -372 -66 -123 -55 -163 -59 -622 -59 -472 0 -503 3 -642 70 -518 250 -522
980 -8 1237 138 68 166 71 643 72 336 1 440 -2 495 -14z"/>
<path d="M863 1559 c-17 -11 -41 -41 -53 -67 -63 -132 -16 -213 116 -199 58 6
146 53 164 88 16 30 -9 34 -38 6 -65 -62 -179 -80 -215 -35 -25 30 -16 89 21
143 29 42 48 51 88 41 19 -5 24 -13 24 -37 0 -36 27 -51 46 -25 19 27 0 70
-42 89 -45 22 -72 21 -111 -4z"/>
<path d="M1383 1535 c-26 -18 -63 -124 -63 -180 0 -43 13 -65 40 -65 18 0 100
80 100 98 0 7 5 12 11 12 6 0 8 -8 4 -20 -3 -10 -3 -35 1 -55 5 -29 10 -36 28
-33 15 2 20 9 17 23 -6 30 -6 93 -1 155 4 39 2 54 -7 53 -6 -2 -28 4 -47 12
-44 19 -56 19 -83 0z m94 -51 c6 -17 -58 -104 -98 -133 l-29 -21 6 32 c11 61
36 128 51 136 20 12 63 3 70 -14z"/>
<path d="M1134 1512 c-7 -5 -9 -44 -6 -120 4 -108 6 -113 26 -110 15 2 20 9
19 26 -6 54 72 162 117 162 23 0 36 18 23 31 -24 24 -106 -28 -139 -86 -10
-17 -11 -11 -12 33 0 55 -9 76 -28 64z"/>
<path d="M1614 1409 c1 -77 5 -114 13 -116 6 -2 39 37 73 87 34 51 64 89 67
86 3 -2 6 -39 8 -81 1 -42 7 -81 13 -87 17 -17 49 8 84 67 18 30 35 55 38 55
3 0 6 -16 7 -36 2 -48 27 -84 59 -84 28 0 74 40 74 65 0 21 -13 19 -35 -5 -23
-26 -52 -26 -60 1 -4 11 -5 48 -3 82 2 52 0 62 -15 65 -10 2 -20 -4 -24 -15
-3 -10 -27 -47 -52 -83 l-46 -65 -5 72 c-3 50 -10 78 -22 90 -17 16 -20 15
-57 -21 -21 -21 -47 -56 -56 -77 -10 -22 -20 -37 -23 -34 -2 2 -5 35 -6 72 -1
54 -4 68 -17 71 -15 3 -17 -10 -15 -109z"/>
<path d="M835 980 c-15 -22 -25 -43 -21 -47 9 -9 81 51 81 68 0 30 -33 18 -60
-21z"/>
<path d="M986 922 c-3 -4 -1 -25 4 -45 8 -36 7 -37 -22 -37 -34 0 -34 -19 0
-35 17 -7 21 -17 20 -55 -2 -86 49 -138 108 -111 26 11 41 37 30 49 -4 3 -16
1 -26 -6 -50 -31 -80 -4 -80 71 l0 45 53 6 c97 12 100 42 2 34 l-45 -3 0 47
c0 41 -3 48 -19 48 -11 0 -22 -4 -25 -8z"/>
<path d="M1926 825 c2 -59 7 -111 10 -117 14 -22 22 13 25 112 4 101 3 105
-18 108 -21 3 -21 1 -17 -103z"/>
<path d="M1660 858 c-8 -4 -28 -13 -43 -18 -19 -7 -27 -16 -25 -28 4 -17 29
-21 59 -8 14 6 15 -12 11 -169 -3 -150 -2 -175 11 -175 20 0 27 31 27 118 l0
73 45 -7 c86 -11 118 39 79 122 -9 19 -28 42 -43 52 -41 29 -105 50 -121 40z
m109 -79 c23 -22 31 -40 31 -65 l0 -34 -49 0 -49 0 1 65 c2 77 16 84 66 34z"/>
<path d="M816 760 c-7 -102 -1 -130 28 -130 22 0 106 59 106 75 0 21 -22 19
-53 -5 -44 -35 -50 -27 -43 48 4 37 8 76 9 87 1 14 -5 21 -19 23 -20 3 -21 -3
-28 -98z"/>
<path d="M1320 848 c-1 -2 -3 -42 -6 -90 -4 -78 -3 -89 16 -108 19 -19 23 -19
49 -5 16 8 45 34 65 57 l36 43 0 -37 c0 -38 29 -78 56 -78 27 0 64 20 64 35 0
13 -7 15 -34 10 -28 -6 -36 -3 -45 13 -16 30 -14 70 5 102 17 28 14 60 -6 60
-6 0 -17 -15 -25 -34 -14 -32 -119 -136 -138 -136 -5 0 -7 37 -5 82 3 72 1 83
-14 86 -10 2 -18 2 -18 0z"/>
<path d="M1924 665 c-4 -9 -2 -21 4 -27 16 -16 47 -5 47 17 0 26 -42 34 -51
10z"/>
</g>
</svg>
