<?xml version="1.0" standalone="no"?>
<!DOCTYPE svg PUBLIC "-//W3C//DTD SVG 20010904//EN"
 "http://www.w3.org/TR/2001/REC-SVG-20010904/DTD/svg10.dtd">
<svg version="1.0" xmlns="http://www.w3.org/2000/svg"
 width="687.000000pt" height="687.000000pt" viewBox="0 0 687.000000 687.000000"
 preserveAspectRatio="xMidYMid meet">
<metadata>
Created by potrace 1.14, written by Peter Selinger 2001-2017
</metadata>
<g transform="translate(0.000000,687.000000) scale(0.100000,-0.100000)"
fill="#000000" stroke="none">
<path d="M3448 6694 c-16 -8 -28 -19 -28 -24 0 -6 -13 -29 -30 -52 -16 -22
-30 -46 -30 -51 0 -6 -9 -20 -20 -32 -14 -15 -21 -40 -25 -90 -13 -164 -44
-310 -78 -375 -13 -25 -34 -78 -46 -118 -25 -82 -55 -118 -182 -214 -41 -31
-83 -66 -94 -78 -11 -12 -42 -38 -70 -58 -94 -67 -216 -202 -369 -406 -119
-158 -155 -222 -218 -384 -60 -154 -73 -199 -104 -367 -13 -71 -31 -164 -39
-205 -16 -81 -45 -330 -45 -388 0 -22 -9 -47 -25 -68 -14 -18 -25 -35 -25 -39
0 -3 -11 -22 -23 -43 -13 -20 -27 -55 -31 -77 -4 -22 -16 -60 -25 -85 -34 -85
-42 -115 -48 -176 l-6 -60 -146 -16 c-173 -18 -245 -43 -362 -125 -74 -53
-171 -161 -226 -253 -25 -41 -68 -168 -78 -225 -9 -59 -15 -76 -25 -70 -17 11
-79 111 -106 170 -14 33 -41 89 -59 125 -18 36 -38 84 -44 108 -18 66 -40 57
-100 -44 -78 -131 -96 -214 -96 -439 1 -170 2 -182 24 -220 30 -53 51 -75 141
-149 94 -78 141 -96 248 -96 70 0 83 -3 88 -17 3 -10 17 -44 31 -76 45 -106
47 -117 48 -342 3 -346 18 -588 43 -663 33 -97 75 -163 144 -223 35 -29 74
-64 88 -77 34 -31 166 -122 178 -122 5 0 33 -17 63 -38 30 -21 70 -44 89 -52
19 -7 60 -26 90 -41 98 -49 248 -103 405 -145 33 -8 101 -27 150 -41 78 -21
121 -26 320 -33 127 -5 330 -14 452 -21 177 -10 266 -10 435 0 117 7 317 16
443 21 223 8 234 9 360 45 72 20 155 43 185 51 152 42 431 162 511 220 26 19
51 34 56 34 5 0 32 15 59 32 48 32 62 43 107 81 12 11 42 35 67 55 115 94 158
165 191 315 17 75 19 111 14 192 -5 79 -3 115 10 165 15 55 16 94 11 249 -6
196 2 257 44 339 10 20 24 49 29 65 10 26 13 27 87 27 111 0 173 25 275 114
57 48 94 90 114 126 l30 55 -1 175 c-1 234 -19 303 -121 478 -36 61 -61 55
-83 -18 -9 -30 -29 -77 -45 -105 -15 -27 -34 -67 -41 -89 -24 -66 -117 -209
-127 -195 -2 2 -11 42 -21 89 -24 116 -62 202 -128 291 -99 135 -227 230 -358
268 -36 11 -121 25 -190 32 -69 7 -128 17 -132 23 -4 6 -8 32 -8 58 0 26 -6
62 -14 80 -17 39 -56 177 -56 196 0 8 -13 32 -28 55 -16 23 -41 61 -56 85 -16
25 -34 42 -45 42 -18 0 -59 -40 -80 -78 -5 -9 -13 -14 -16 -10 -9 8 14 217 25
239 5 8 12 103 16 210 6 163 4 203 -9 245 -8 27 -18 69 -21 94 -5 48 -62 222
-94 294 -11 22 -41 90 -68 149 -27 60 -59 120 -71 133 -25 27 -30 39 -12 28
18 -10 -6 28 -30 50 -12 11 -21 24 -21 30 0 7 -25 36 -55 66 -30 29 -57 66
-60 82 -6 23 -50 68 -68 68 -3 0 -50 44 -104 99 -103 103 -132 123 -222 154
-61 21 -144 71 -181 110 -33 35 -47 96 -49 219 -1 57 -6 121 -11 143 -5 21 -7
42 -4 46 2 4 -5 35 -16 69 -11 35 -20 76 -20 92 0 16 -9 46 -20 68 -11 22 -20
47 -20 57 -1 31 -28 96 -44 105 -9 5 -16 15 -16 23 0 8 -11 21 -24 30 -17 11
-22 22 -18 40 5 30 -17 33 -60 9z"/>
</g>
</svg>
